<?xml version="1.0" encoding="UTF-8" standalone="no"?>
<!DOCTYPE svg PUBLIC "-//W3C//DTD SVG 1.1//EN" "http://www.w3.org/Graphics/SVG/1.1/DTD/svg11.dtd">
<svg width="100%" height="100%" viewBox="0 0 86 86" version="1.1" xmlns="http://www.w3.org/2000/svg" xmlns:xlink="http://www.w3.org/1999/xlink" xml:space="preserve" xmlns:serif="http://www.serif.com/" style="fill-rule:evenodd;clip-rule:evenodd;stroke-linejoin:round;stroke-miterlimit:2;">
    <g transform="matrix(-1,0,0,1,86,0)">
        <g id="Layer_1">
            <path d="M85.699,1.723C85.699,0.937 85.062,0.3 84.276,0.3L43,0.3C19.417,0.3 0.3,19.417 0.3,43C0.3,66.582 19.417,85.7 43,85.7C66.583,85.7 85.7,66.582 85.7,43C85.7,42.364 85.699,1.723 85.699,1.723Z" style="fill:url(#_Linear1);fill-rule:nonzero;"/>
        </g>
    </g>
    <g transform="matrix(0.143131,0,0,0.143131,8.00435,8.00778)">
        <path d="M244.501,52.85C138.668,52.85 52.874,138.644 52.874,244.477C52.874,350.31 138.668,436.104 244.501,436.104C350.334,436.104 436.127,350.31 436.127,244.477C436.127,138.644 350.334,52.85 244.501,52.85ZM244.501,396.181C160.718,396.181 92.796,328.259 92.796,244.477C92.796,160.694 160.718,92.772 244.501,92.772C328.283,92.772 396.205,160.694 396.205,244.477C396.205,328.259 328.283,396.181 244.501,396.181Z" style="fill:rgb(255,163,221);fill-rule:nonzero;"/>
        <path d="M244.501,36.881C350.462,36.881 439.153,116.207 450.786,221.4L452.615,237.919L489.001,201.537L477.711,190.246L464.303,203.642C444.981,98.402 353.176,20.912 244.501,20.912C238.976,20.912 233.401,21.111 227.947,21.508L229.113,37.438C234.185,37.064 239.358,36.881 244.501,36.881Z" style="fill:white;fill-opacity:0.92;fill-rule:nonzero;"/>
        <path d="M244.501,452.072C138.539,452.072 49.848,372.739 38.215,267.553L36.386,251.03L0,287.416L11.291,298.707L24.694,285.307C44.02,390.552 135.825,468.041 244.501,468.041C250.041,468.041 255.623,467.843 261.058,467.433L259.877,451.511C254.832,451.889 249.658,452.072 244.501,452.072Z" style="fill:white;fill-opacity:0.92;fill-rule:nonzero;"/>
        <path d="M244.501,84.787C156.449,84.787 84.811,156.425 84.811,244.477C84.811,332.528 156.449,404.166 244.501,404.166C332.552,404.166 404.19,332.528 404.19,244.477C404.19,156.425 332.552,84.787 244.501,84.787ZM252.485,387.787L252.485,348.275L236.516,348.275L236.516,387.787C163.65,383.756 105.221,325.327 101.186,252.461L140.703,252.461L140.703,236.492L101.186,236.492C105.221,163.626 163.65,105.197 236.516,101.162L236.516,140.679L252.485,140.679L252.485,101.162C325.351,105.197 383.78,163.626 387.811,236.492L348.298,236.492L348.298,252.461L387.811,252.461C383.78,325.327 325.351,383.756 252.485,387.787Z" style="fill:white;fill-opacity:0.92;fill-rule:nonzero;"/>
        <path d="M252.485,221.993L252.485,156.648L236.516,156.648L236.516,221.993C227.245,225.299 220.547,234.079 220.547,244.477C220.547,257.681 231.292,268.43 244.501,268.43C254.894,268.43 263.678,261.732 266.984,252.461L300.392,252.461L300.392,236.492L266.984,236.492C264.575,229.728 259.249,224.402 252.485,221.993ZM244.501,252.461C240.091,252.461 236.516,248.874 236.516,244.477C236.516,240.075 240.091,236.492 244.501,236.492C248.906,236.492 252.485,240.075 252.485,244.477C252.485,248.874 248.906,252.461 244.501,252.461Z" style="fill:white;fill-opacity:0.92;fill-rule:nonzero;"/>
        <path d="M193.046,26.772L208.699,23.653L211.818,39.314L196.165,42.429L193.046,26.772Z" style="fill:white;fill-opacity:0.92;fill-rule:nonzero;"/>
        <path d="M151.572,40.978L166.329,34.869L172.434,49.625L157.681,55.731L151.572,40.978Z" style="fill:white;fill-opacity:0.92;fill-rule:nonzero;"/>
        <path d="M113.658,63.017L126.936,54.152L135.806,67.431L122.523,76.3L113.658,63.017Z" style="fill:white;fill-opacity:0.92;fill-rule:nonzero;"/>
        <path d="M80.769,92.039L92.059,80.748L103.35,92.039L92.059,103.33L80.769,92.039Z" style="fill:white;fill-opacity:0.92;fill-rule:nonzero;"/>
        <path d="M54.164,126.909L63.037,113.634L76.312,122.507L67.443,135.782L54.164,126.909Z" style="fill:white;fill-opacity:0.92;fill-rule:nonzero;"/>
        <path d="M34.893,166.293L41.006,151.54L55.759,157.653L49.646,172.406L34.893,166.293Z" style="fill:white;fill-opacity:0.92;fill-rule:nonzero;"/>
        <path d="M23.677,208.687L26.792,193.026L42.453,196.137L39.341,211.802L23.677,208.687Z" style="fill:white;fill-opacity:0.92;fill-rule:nonzero;"/>
        <path d="M277.171,449.609L292.824,446.493L295.943,462.154L280.29,465.269L277.171,449.609Z" style="fill:white;fill-opacity:0.92;fill-rule:nonzero;"/>
        <path d="M316.575,439.32L331.332,433.215L337.437,447.971L322.684,454.076L316.575,439.32Z" style="fill:white;fill-opacity:0.92;fill-rule:nonzero;"/>
        <path d="M353.219,421.519L366.509,412.645L375.375,425.928L362.088,434.801L353.219,421.519Z" style="fill:white;fill-opacity:0.92;fill-rule:nonzero;"/>
        <path d="M385.644,396.914L396.934,385.624L408.225,396.914L396.934,408.205L385.644,396.914Z" style="fill:white;fill-opacity:0.92;fill-rule:nonzero;"/>
        <path d="M412.7,366.462L421.574,353.175L434.853,362.045L425.983,375.331L412.7,366.462Z" style="fill:white;fill-opacity:0.92;fill-rule:nonzero;"/>
        <path d="M433.242,331.304L439.348,316.551L454.104,322.656L447.995,337.413L433.242,331.304Z" style="fill:white;fill-opacity:0.92;fill-rule:nonzero;"/>
        <path d="M446.541,292.836L449.66,277.182L465.321,280.301L462.202,295.955L446.541,292.836Z" style="fill:white;fill-opacity:0.92;fill-rule:nonzero;"/>
    </g>
    <defs>
        <linearGradient id="_Linear1" x1="0" y1="0" x2="1" y2="0" gradientUnits="userSpaceOnUse" gradientTransform="matrix(72.4764,-72.4764,72.4764,72.4764,12.8065,73.1935)"><stop offset="0" style="stop-color:rgb(127,52,184);stop-opacity:1"/><stop offset="1" style="stop-color:rgb(243,59,130);stop-opacity:1"/></linearGradient>
    </defs>
</svg>
